<?xml version="1.0" encoding="UTF-8" standalone="no"?>
<svg
   xmlns:dc="http://purl.org/dc/elements/1.1/"
   xmlns:cc="http://creativecommons.org/ns#"
   xmlns:rdf="http://www.w3.org/1999/02/22-rdf-syntax-ns#"
   xmlns:svg="http://www.w3.org/2000/svg"
   xmlns="http://www.w3.org/2000/svg"
   xmlns:sodipodi="http://sodipodi.sourceforge.net/DTD/sodipodi-0.dtd"
   xmlns:inkscape="http://www.inkscape.org/namespaces/inkscape"
   version="1.1"
   x="0px"
   y="0px"
   viewBox="0 0 150.40283 147.10721"
   xml:space="preserve"
   id="svg10"
   sodipodi:docname="noun_370530_cc.svg"
   width="150.40283"
   height="147.10721"
   inkscape:version="0.92.1 r15371"><metadata
     id="metadata16"><rdf:RDF><cc:Work
         rdf:about=""><dc:format>image/svg+xml</dc:format><dc:type
           rdf:resource="http://purl.org/dc/dcmitype/StillImage" /><dc:title></dc:title></cc:Work></rdf:RDF></metadata><defs
     id="defs14" /><sodipodi:namedview
     pagecolor="#ffffff"
     bordercolor="#666666"
     borderopacity="1"
     objecttolerance="10"
     gridtolerance="10"
     guidetolerance="10"
     inkscape:pageopacity="0"
     inkscape:pageshadow="2"
     inkscape:window-width="640"
     inkscape:window-height="480"
     id="namedview12"
     showgrid="false"
     fit-margin-top="10"
     fit-margin-left="10"
     fit-margin-right="10"
     fit-margin-bottom="9.9"
     inkscape:zoom="1.888"
     inkscape:cx="74.902279"
     inkscape:cy="60.991103"
     inkscape:window-x="0"
     inkscape:window-y="0"
     inkscape:window-maximized="0"
     inkscape:current-layer="svg10" /><style
     type="text/css"
     id="style2">
	.st0{fill:#231F20;}
</style><path
     class="st0"
     d="m 140.23379,58.438195 c -0.4444,-1.214751 -1.48135,-2.125814 -2.81456,-2.125814 H 92.090041 L 78.017252,12.125815 C 77.572848,10.911064 76.535906,10 75.202694,10 c 0,0 0,0 0,0 -1.333211,0 -2.370154,0.911064 -2.814558,2.125815 L 58.315348,56.312381 H 12.986154 c -1.333211,0 -2.370154,0.911063 -2.814557,2.125814 -0.4444042,1.214751 0,2.581346 1.036942,3.340566 L 47.79779,88.958814 33.725001,133.14538 c -0.444404,1.21475 0,2.58134 1.036942,3.34056 0.592539,0.45553 1.185077,0.60738 1.777616,0.60738 0.592538,0 1.185077,-0.15185 1.777615,-0.60738 l 36.737385,-27.33189 36.737381,27.48374 c 1.03695,0.75922 2.37016,0.75922 3.55524,0 1.03694,-0.75922 1.48134,-2.12582 1.03694,-3.34057 L 102.31133,89.110657 139.04871,61.930604 c 1.18508,-0.911063 1.62948,-2.277658 1.18508,-3.492409 z M 97.126618,85.466404 c -1.036943,0.75922 -1.481347,2.125815 -1.036943,3.340566 L 107.94044,126.3124 76.98031,103.23214 c -1.036943,-0.75922 -2.370154,-0.75922 -3.407097,0 l -31.10827,23.08026 11.85077,-37.50543 c 0.444404,-1.214751 0,-2.581346 -1.036942,-3.340566 L 22.1705,62.386136 h 38.218732 c 1.333212,0 2.370154,-0.911063 2.814558,-2.125814 l 11.998904,-37.505436 11.85077,37.505436 c 0.444403,1.214751 1.481346,2.125814 2.814557,2.125814 h 38.366869 z"
     id="path4"
     inkscape:connector-curvature="0"
     style="fill:#231f20;stroke-width:1.49977779" /></svg>