<svg viewBox="0 0 200 200" xmlns="http://www.w3.org/2000/svg" xml:space="preserve" fill-rule="evenodd" clip-rule="evenodd" stroke-linejoin="round" stroke-miterlimit="2"><path d="M100 0c55.192 0 100 44.808 100 100s-44.808 100-100 100S0 155.192 0 100 44.808 0 100 0Zm0 12c48.569 0 88 39.431 88 88s-39.431 88-88 88-88-39.431-88-88 39.431-88 88-88Z"/><path d="M110 62a7 7 0 0 1 7-7h6a7 7 0 0 1 7 7v76a7 7 0 0 1-7 7h-6a7 7 0 0 1-7-7V62ZM70 62a7 7 0 0 1 7-7h6a7 7 0 0 1 7 7v76a7 7 0 0 1-7 7h-6a7 7 0 0 1-7-7V62Z"/></svg>
