<svg viewBox="0 0 200 200" xmlns="http://www.w3.org/2000/svg" xml:space="preserve" fill-rule="evenodd" clip-rule="evenodd" stroke-linejoin="round" stroke-miterlimit="2"><path d="M100 0c55.192 0 100 44.808 100 100s-44.808 100-100 100S0 155.192 0 100 44.808 0 100 0Zm0 12c48.569 0 88 39.431 88 88s-39.431 88-88 88-88-39.431-88-88 39.431-88 88-88Z"/><path d="M65.296 66.995c0-3.543 1.875-6.822 4.928-8.619a10.002 10.002 0 0 1 9.928-.122l59.409 33.004a10.001 10.001 0 0 1 0 17.484l-59.409 33.004a10.002 10.002 0 0 1-9.928-.122 10.002 10.002 0 0 1-4.928-8.619v-66.01Z"/></svg>
