<?xml version="1.0" encoding="UTF-8" standalone="no"?>
<!DOCTYPE svg PUBLIC "-//W3C//DTD SVG 1.1//EN" "http://www.w3.org/Graphics/SVG/1.1/DTD/svg11.dtd">
<svg width="100%" height="100%" viewBox="0 0 551 341" version="1.1" xmlns="http://www.w3.org/2000/svg" xmlns:xlink="http://www.w3.org/1999/xlink" xml:space="preserve" xmlns:serif="http://www.serif.com/" style="fill-rule:evenodd;clip-rule:evenodd;stroke-linecap:round;stroke-linejoin:round;stroke-miterlimit:1.5;">
    <g transform="matrix(1,0,0,1,-98.5833,-100.583)">
        <g transform="matrix(1.88374,0,0,2.90909,-135.886,23.7273)">
            <rect x="130" y="30" width="200" height="110" style="fill:none;stroke:rgb(237,237,237);stroke-width:8.5px;"/>
        </g>
        <g transform="matrix(1,0,0,1,-47.5418,205.535)">
            <path d="M310.081,170.052L230.979,65.023L310.081,-40.007L333.518,-40.007L252.805,65.023L333.518,170.052L310.081,170.052ZM207.542,170.052L207.542,-40.007L226.438,-40.007L226.438,170.052L207.542,170.052Z" style="fill-rule:nonzero;"/>
            <path d="M478.684,121.419C478.684,128.548 477.342,135.237 474.656,141.487C471.97,147.737 468.284,153.206 463.596,157.894C458.909,162.581 453.44,166.268 447.19,168.953C440.94,171.639 434.251,172.982 427.122,172.982L412.18,172.982C405.052,172.982 398.338,171.639 392.039,168.953C385.74,166.268 380.247,162.581 375.559,157.894C370.872,153.206 367.185,147.737 364.5,141.487C361.814,135.237 360.471,128.548 360.471,121.419L360.471,8.626C360.471,1.497 361.814,-5.192 364.5,-11.442C367.185,-17.692 370.872,-23.161 375.559,-27.849C380.247,-32.536 385.74,-36.223 392.039,-38.908C398.338,-41.594 405.052,-42.936 412.18,-42.936L427.122,-42.936C434.251,-42.936 440.94,-41.594 447.19,-38.908C453.44,-36.223 458.909,-32.536 463.596,-27.849C468.284,-23.161 471.97,-17.692 474.656,-11.442C477.342,-5.192 478.684,1.497 478.684,8.626L478.684,121.419ZM459.788,8.626C459.788,3.939 458.909,-0.432 457.151,-4.484C455.393,-8.537 453.001,-12.077 449.973,-15.104C446.946,-18.132 443.406,-20.524 439.353,-22.282C435.301,-24.04 430.93,-24.919 426.243,-24.919L413.059,-24.919C408.372,-24.919 404.002,-24.04 399.949,-22.282C395.896,-20.524 392.332,-18.132 389.256,-15.104C386.179,-12.077 383.762,-8.537 382.005,-4.484C380.247,-0.432 379.368,3.939 379.368,8.626L379.368,121.419C379.368,126.107 380.247,130.477 382.005,134.529C383.762,138.582 386.179,142.147 389.256,145.223C392.332,148.299 395.896,150.716 399.949,152.474C404.002,154.232 408.372,155.11 413.059,155.11L426.243,155.11C430.93,155.11 435.301,154.232 439.353,152.474C443.406,150.716 446.946,148.299 449.973,145.223C453.001,142.147 455.393,138.582 457.151,134.529C458.909,130.477 459.788,126.107 459.788,121.419L459.788,8.626Z" style="fill-rule:nonzero;"/>
            <path d="M642.014,37.776C642.014,44.905 640.672,51.595 637.986,57.845C635.301,64.095 631.614,69.564 626.927,74.251C622.239,78.939 616.746,82.625 610.447,85.311C604.148,87.996 597.434,89.339 590.305,89.339L542.698,89.339L542.698,170.052L523.802,170.052L523.802,-40.007L590.305,-40.007C597.434,-40.007 604.148,-38.664 610.447,-35.978C616.746,-33.293 622.239,-29.606 626.927,-24.919C631.614,-20.231 635.301,-14.738 637.986,-8.439C640.672,-2.141 642.014,4.573 642.014,11.702L642.014,37.776ZM623.118,11.702C623.118,7.015 622.239,2.645 620.481,-1.408C618.723,-5.461 616.306,-9.025 613.23,-12.101C610.154,-15.178 606.59,-17.595 602.537,-19.352C598.484,-21.11 594.114,-21.989 589.427,-21.989L542.698,-21.989L542.698,71.321L589.427,71.321C594.114,71.321 598.484,70.442 602.537,68.685C606.59,66.927 610.154,64.534 613.23,61.507C616.306,58.48 618.723,54.94 620.481,50.887C622.239,46.834 623.118,42.464 623.118,37.776L623.118,11.702Z" style="fill-rule:nonzero;"/>
            <rect x="678.05" y="-40.007" width="18.896" height="210.059" style="fill-rule:nonzero;"/>
        </g>
    </g>
</svg>
